<?xml version="1.0" encoding="UTF-8" standalone="yes"?>
<svg version="1.2" baseProfile="tiny-ps" viewBox="0 0 300 300" xmlns="http://www.w3.org/2000/svg">
  <title>bimi-svg-tiny-12-ps</title>
  <g>
    <g fill="#f6ead8" transform="matrix(.1 0 0 -.1 0 300)">
      <path d="M0 1500V0h3000v3000H0V1500z"/>
    </g>
    <g fill="#cbc4ba" transform="matrix(.1 0 0 -.1 0 300)">
      <path d="M0 1500V0h3000v3000H0V1500zm1350 870v-20h-70v-200h-50v200h-60v40h180v-20zm110-30v-50h110v100h40v-240h-39l-3 48-3 47h-100l-3-47-3-48h-44l-2 68c-1 37 0 91 3 120l5 52h39v-50zm370 30v-20h-90v-60h80v-40h-81l3-32 3-33 43-3 42-3v-29h-140v240h140v-20zm-913-374 33-36v-91l-15-28-14-28-35-17-34-16h-69l-34 23-34 23-15 42-14 42 14 42 15 42 35 24 35 24 49-5 50-4 33-37zm-297 14 20-20v-70l-20-20-20-20h-22c-13 0-34-3-46-7l-24-6 4-38 4-39h-46v240h130l20-20zm550 0v-20h-60v-200h-50v200h-70v40h180v-20zm210 0v-20h-100v-60h90v-40h-90v-60h100v-40h-140v240h140v-20zm172-57 53-77 3 77 3 77h49v-240h-55l-50 77-50 77-3-77-3-77h-49v240h49l53-77zm348 57v-20h-60v-200h-50v200h-70v40h180v-20zm120-100v-120h-50v240h50v-120zm266 0c24-63 44-116 44-117 0-2-11-3-25-3h-25l-10 25-10 25h-100l-12-25-11-25h-49l7 18c9 21 74 192 80 210l5 13 31-3 31-3 44-115zm154 20v-100h90v-40h-137l-1 120-2 120h50v-100zM829 1619l33-61 11 11c6 6 22 32 36 58l26 48 28 3 27 3v-251h-40v160h-7c-5 0-21-23-36-50l-28-50h-28l-28 52-28 52-3-82-3-82h-49v250h55l34-61zm381 42v-20l-42-3-43-3-3-27-3-28h91v-39l-42-3-43-3v-60l48-3 47-3v-39h-140v250h130v-19zm250-1v-20h-70v-210h-50v210h-60v40h180v-20zm110-30v-50h100v100h50v-250h-50v110h-100v-110h-50v250h50v-50zm410 35 30-15 15-30 15-29v-72l-15-29-15-30-30-15-29-15h-89l-31 26-31 25-11 38-11 38 11 36 12 36 30 26 31 25h89l29-15zm255 1 35-15 20-33 21-33-4-43-5-43-23-25-23-24-35-10c-20-5-55-10-78-10h-43v250h101l34-14zm-586-391 30-26 11-35 12-35-16-49-16-49 22-42 22-42 3-51 4-51-23-44c-13-25-31-49-40-55l-18-11-77 40-78 40h-55c-30 0-71-4-91-8l-37-9-12 37-12 37 5 39c3 22 14 57 25 79l20 40-15 50-15 50 12 35 11 34 30 26 31 25h236l31-25zm-76-519 87-46h26c13 0 41 7 61 15 19 8 39 15 44 15h9v-48l-32-13-33-14-51 1h-51l-96 48-96 48-45-6-44-7-44-29c-24-16-51-30-60-30h-18v13c0 26 69 78 129 98l26 8 50-3 50-4 88-46zM773 1976l-28-24v-84l28-24 28-24h46l27 26 26 27v36l-1 36-12 16c-15 19-50 39-71 39-8 0-27-11-43-24zm-263-21v-36l38 3 37 3v60l-37 3-38 3v-36zm1682-18c-7-18-12-39-12-45v-12h30c17 0 30 3 30 6 0 16-24 84-30 84-3 0-11-15-18-33zm-323-307c-9-5-22-23-29-39l-12-30 12-35 12-36 18-10c10-6 32-10 49-10h30l20 26 21 27v64l-21 27-20 26h-32c-18 0-39-5-48-10zm281-70v-80h69l20 26 21 27v49l-29 29-29 29h-52v-80zm-769-336-21-27v-26c0-14 4-32 9-39l8-14 34 18 34 17h110l34-17 34-18 8 14c5 7 9 25 9 39v26l-21 27-20 26h-198l-20-26z"/>
    </g>
    <g fill="#9f9c95" transform="matrix(.1 0 0 -.1 0 300)">
      <path d="M0 1500V0h3000v3000H0V1500zm1350 871v-20l-32-3-33-3-3-102-3-103h-49v210h-70v40h190v-19zm120-32v-50l47 3 47 3-3 48-3 47h63l-3-122-3-123h-50l-3 48-3 47h-88l-3-47-3-48-27-3-28-3v251h60v-51zm360 31v-20h-90v-60h91l-3-22-3-23-42-3-43-3v-49h90v-50h-140v250h140v-20zM582 2030l38-11 10-19c5-10 10-32 10-49v-31l-20-20-20-20-40-6-40-7v-77h-50v250h38c20 0 54-5 74-10zm311-9c37-24 54-50 61-92l6-34-13-35-12-34-34-23-34-23h-82l-25 13c-13 7-35 28-47 46l-23 34v68l15 30 16 30 32 19 32 20h80l28-19zm1017-12v-19h-70v-200h-50v200h-70v45l95-3 95-3v-20zm110-96v-123h-50v250l25-2 25-2v-123zm258 25c21-57 42-113 46-125l7-23h-51l-12 25-11 25h-97l-10-25-10-25h-52l6 18c4 9 25 65 48 125l41 107h55l40-102zm-1098 72v-20h-70v-200h-50v200h-70v40h190v-20zm200 1v-20l-47-3-48-3v-50l43-3 42-3v-39h-78l-5-12c-2-7-2-21 1-30l4-18h88v-40h-150v240h150v-19zm175-60 50-73 3 76 3 76h49v-240h-55l-53 77-52 77v-154h-50v241l28-3 27-3 50-74zm895-21v-100h80v-40h-140v240h60v-100zm-498-250 37-11 25-30 26-31v-106l-26-31-25-31-38-10-37-10-31 9c-16 5-39 14-50 20l-20 10-17 35c-20 43-20 79 1 123l16 36 41 18c48 22 50 22 98 9zm-1128-47c14-27 29-54 34-62l10-14 33 62 34 61h55v-250h-49l-3 78-3 77-25-45-25-45-17-3-16-3-31 53-31 53v-165h-50v250h60l24-47zm396 27v-20h-90v-60h80v-50h-80v-50h90v-50h-150v250h150v-20zm240-5v-25h-70v-200h-50v199l-32 3-33 3-3 23-3 22h191v-25zm110-25v-50h100v100h50v-250h-50v100h-100v-100h-50v250h50v-50zm702 13 31-31 4-49 5-48-23-29-22-28-33-14-33-14h-101v252l70-4 70-4 32-31zm-660-343 37-11 20-27c10-15 22-43 26-63l6-35-14-43-15-43 21-36 22-37V861l-21-27c-11-15-27-32-37-38l-16-10-78 36c-43 21-92 40-109 43l-31 6-45-10c-24-6-52-13-61-16l-16-7-11 44-12 43 6 44 6 45 19 32 19 32-15 44-15 43 6 33c2 18 14 46 26 62l21 30 32 9c18 5 68 10 112 10l80 1 37-10zm-56-535 89-45h39c22 0 55 5 73 12l33 12 11-11 11-11-11-21-11-20-43-12-42-11-44 6-44 6-71 39c-39 21-84 41-99 45l-28 7-38-11c-21-5-57-23-81-39l-43-29-14 5-13 5v36l35 26c46 36 100 54 156 55l47 1 88-45zM520 1954v-35l26 3 27 3 10 17 11 16-13 16-13 16h-48v-36zm273 36-22-9-16-32-17-31 7-25c3-14 17-36 30-49l24-24h43l29 29 29 29v64l-29 29c-31 31-42 33-78 19zm1398-61c-6-18-11-36-11-40v-9h30c34 0 34 1 18 47-15 41-23 42-37 2zm-331-314-24-26v-68l24-26 23-25h55l22 18 21 17 6 42 5 41-25 26-26 26h-58l-23-25zm295 17c-3-3-5-38-5-79v-73h58l23 19 23 18v72l-18 19-17 20-30 4c-16 3-31 2-34 0zm-766-401-24-19v-40c0-51 5-56 41-37 16 8 47 17 69 21l41 6 56-19 57-19 6 24 6 24-7 21c-3 12-13 30-22 40l-15 17h-185l-23-19z"/>
    </g>
    <g fill="#6d6b68" transform="matrix(.1 0 0 -.1 0 300)">
      <path d="M0 1500V0h3000v3000H0V1500zm1350 871v-20l-32-3-33-3v-200l-27-3-28-3v211h-70v40h190v-19zm120-31v-50h90v100h60v-250h-60v100h-90v-100h-60v250h60v-50zm368 28-3-23-47-3-48-3v-49h90v-50h-90v-50h100v-50h-150v250h151l-3-22zM619 2016l21-19v-84l-19-17-19-18-41-5-41-6v-88l-27 3-28 3-3 129-3 128 70-4 70-4 20-18zm282 1 33-22 14-37 14-37-7-37-7-38-33-33-33-33H768l-40 40-40 40 4 57 5 56 36 34 37 33h97l34-23zm279-2v-25h-70v-211l-27 3-28 3-3 103-3 102h-59v50h190v-25zm200 0v-25h-90v-60h80v-40h-80v-60h90v-51l-72 3-73 3-3 128-3 127h151v-25zm171-52 54-78 3 78 3 77h49v-260h-49l-53 76-53 76-3-76-3-76h-49v260h46l55-77zm359 52v-25h-70v-210h-49l-3 103-3 102-32 3-33 3v49h190v-25zm110-105v-130h-50v260h50v-130zm266 10c24-63 44-121 44-127v-13h-50l-10 25-10 25h-100l-12-25-11-25h-47v13c0 6 17 57 38 112 22 55 42 108 45 118l7 18 31-3 31-3 44-115zm164 15v-105h91l-3-22-3-23-72-3-73-3v261h60v-105zm-493-256c15-6 38-20 51-32l22-21 10-36 10-36-10-36-11-37-30-25-30-25-35-7-35-6-37 14-37 14-22 33-23 34v82l20 33 20 33 33 14c39 17 67 18 104 4zm-1124-60 35-61 32 61 33 61h67v-250h-60v78l-1 77-27-48-27-48-20 3-20 3-25 45-25 45-3-77-3-78h-49v250h59l34-61zm387 36v-25h-90v-50h80v-50h-80v-50h90v-50h-150v250h150v-25zm240 0v-25h-70v-200h-50v200h-70v50h190v-25zm112-22 3-48h90l3 48 3 47h49v-250h-50v100h-100v-100h-50v250h49l3-47zm682 28c16-11 35-30 42-43l13-23 1-38v-38l-15-28-14-28-35-17-34-16h-112v250h125l29-19zm-616-371 33-20 15-35c18-43 18-76 0-119l-14-34 24-48 24-47V884l-22-44-23-45-24-3-23-4-73 37-73 37-73-4c-41-3-81-8-90-12l-17-7-12 36-12 37 4 48 5 48 20 38 20 39-13 30c-17 40-17 78 0 120l15 35 33 20 33 20h210l33-20zm-73-526 87-46 47 6c25 3 60 6 76 8l30 3v-40l-35-18-35-18-57 4-56 3-83 43-82 43-54-4-54-5-46-32-45-32-14 5-14 5v40l33 25c18 14 48 32 67 40l35 15 57 1h56l87-46zM520 1954v-35l26 3 27 3 10 17 11 16-13 16-13 16h-48v-36zm273 31-30-13-7-17c-3-9-6-32-6-50v-33l18-23 19-22h64l22 21 22 22v78l-18 20c-10 11-26 22-36 25l-18 4-30-12zm1403-49c-3-13-9-31-12-40l-6-16h31c36 0 36 0 17 45-18 41-22 43-30 11zm-331-321-25-24v-72l25-24 24-25h51l20 20c11 11 22 31 26 45l6 25-12 31c-14 33-37 49-70 49h-21l-24-25zm295-60v-75h50l20 20 20 20v70l-20 20-20 20h-50v-75zm-763-317c-9-7-21-25-26-39l-10-27 6-22 6-22 21 7c11 4 40 12 64 18l42 10 43-10c23-6 52-14 65-18l22-7v91l-22 15-22 16h-172l-17-12z"/>
    </g>
    <g fill="#3e3c3a" transform="matrix(.1 0 0 -.1 0 300)">
      <path d="M0 1500V0h3000v3000H0V1500zm1350 870v-30h-60v-200h-60v200h-70v60h190v-30zm120-20v-50h90v100h60v-260h-60v100h-90v-100h-60v260h60v-50zm368 18 3-28h-91v-50h80v-50h-80v-50h90v-50h-150v261l73-3 72-3 3-27zm-940-344c13-8 32-29 43-47l20-32-4-48-4-48-29-30-28-29-40-11-39-11-44 17-45 17-19 32-19 31v86l16 30 15 31 42 19 42 19 35-6c19-3 45-12 58-20zm-282-8 28-23v-76l-28-23-27-24h-69v-90h-60v260h129l27-24zm564-1v-25h-70v-211l-27 3-28 3-3 103-3 102h-59v50h190v-25zm200 0v-25h-90v-50h80v-60h-80v-50h90v-50h-150v260h150v-25zm172-52 53-78 3 78 3 77h49v-261l-27 3-28 3-50 74-50 73-3-77-3-76-27 3-27 3-3 114c-1 63 0 121 2 128l5 13h50l53-77zm358 53v-25l-32-3-33-3-3-103-3-103-27 3-27 3-3 103-3 102h-59v50h190v-24zm118-103-3-128-27-3-28-3v261h61l-3-127zm264-3c26-68 48-126 48-127 0-2-14-3-30-3h-30l-12 25-11 25h-97l-10-25-10-25h-59l30 83c17 45 37 99 45 120 7 21 16 43 20 48l6 10 31-3 31-3 48-125zm158 25v-105h90v-50h-150v260h60v-105zM832 1624c16-30 32-54 34-54s18 25 35 55l31 55h68v-250h-60v155l-30-52-30-53h-29l-28 52-28 52-3-77-3-77h-59v123c0 68 2 126 5 129 3 2 19 3 36 0l30-4 31-54zm336 56h52v-50h-90v-49l43-3 42-3v-40l-42-3-43-3v-49h90v-50h-150v262l23-6c12-3 46-6 75-6zm552-120v-130h-50v100h-90v-100h-60v250h60v-90h90v89l23 4c12 2 23 5 25 6 1 0 2-57 2-129zm259 112 34-19 19-34c23-42 23-73-1-125l-18-41-36-16-35-17h-63l-30 15-30 16-19 32-20 32v91l16 23c9 12 30 31 48 42l31 19h70l34-18zm264-4 28-11 19-27 20-28v-93l-16-25c-10-14-30-32-45-40l-28-14h-121v257l58-4c31-3 69-9 85-15zm-783-13v-25h-60v-200h-60v200h-70v50h190v-25zm170-358c13-7 35-28 47-46l23-34v-37c0-20-5-51-11-68l-11-32 22-45 22-46-4-67-3-67-23-33-23-32h-47l-73 35-73 35h-52c-28 0-66-5-83-11l-33-11-11 11-11 11-4 63-4 63 21 50 22 50-11 28c-5 15-10 44-10 65v38l23 34c12 18 34 39 47 46l25 13h210l25-13zm-62-533 84-44h34c19 0 50 6 68 14l34 14 11-11c6-6 11-17 11-24v-13l-32-20-33-20h-112l-89 46-89 45-53-4-53-4-46-32-45-32-14 5-14 5v38l23 20c51 47 134 75 197 66l35-6 83-43zM772 1967l-22-23v-70l21-23 21-22 36 3 37 3 18 36 17 36-11 32-11 31-18 10c-10 6-29 10-43 10h-24l-21-23zm-252-12v-35h19c17 0 51 24 51 35s-34 35-51 35h-19v-35zm1671-35-10-30h25c26 0 27 3 18 38-9 30-20 28-33-8zm-326-305-25-24v-72l25-24 24-25h40l27 24 28 23v76l-28 23-27 24h-40l-24-25zm295-60v-75h19c10 0 30 9 45 21l26 20v69l-20 20-20 20h-50v-75zm-750-311c-8-4-21-13-27-22l-13-16v-76h9c5 0 25 7 44 15l36 15h39c22 0 59-7 82-15s44-15 46-15 4 17 4 38v38l-14 20-14 19-89 2c-48 1-95 0-103-3z"/>
    </g>
    <g fill="#020302" transform="matrix(.1 0 0 -.1 0 300)">
      <path d="M0 1500V0h3000v3000H0V1500zm1350 870v-30h-60v-200h-60v200h-70v60h190v-30zm120-20v-50h90v100h60v-260h-60v100h-90v-100h-60v260h60v-50zm370 20v-30h-90v-50h80v-50h-80v-50h90v-50h-150v260h150v-30zm-967-334c18-7 43-25 56-40l24-26 4-52 4-53-19-31-20-31-37-17-38-18-39 5c-46 6-81 27-105 63l-17 26v95l24 32 23 33 31 14c40 17 69 17 109 0zm-247-21c8-11 17-30 21-43l5-22-12-29-11-28-25-12c-14-6-38-11-54-11h-30v-90h-60v262l76-4 76-3 14-20zm554-5v-30h-70v-200h-60v199l-32 3-33 3-3 28-3 27h201v-30zm200 0v-30h-90v-39l43-3 42-3v-50l-42-3-43-3v-39h90v-60h-150v260h150v-30zm169-41 50-71 3 69 3 68 33 3 32 3v-261h-65l-52 77-53 77v-154h-60v260h59l50-71zm361 41v-30h-60v-200h-70v199l-32 3-33 3-3 28-3 27h201v-30zm120-100v-130h-59l-3 118c-2 64-1 123 1 130l3 12h58v-130zm259 12c25-64 46-123 49-129l4-13h-70l-6 25-6 25h-97l-11-25-12-25h-62l4 13c3 6 25 65 49 129l44 118h70l44-118zm161 18v-100h90v-60h-150v260h60v-100zM833 1629l34-62 34 62 34 61h65v-260h-60v145l-30-47-30-48h-29l-28 48-28 47-3-72-3-73h-59v260h68l35-61zm387 31v-30h-90v-50h90v-50h-90v-50h90v-50h-150v260h150v-30zm240 0v-30h-60v-200h-60v200h-70v60h190v-30zm120-20v-50h79l3 48 3 47h60l3-127 3-128h-71v100h-80v-100h-70v123c0 68 3 127 7 130 3 4 19 7 35 7h28v-50zm401 35 30-16 19-32 20-32v-33c0-18-6-48-14-67l-15-35-33-20-33-21-53 4-52 4-30 28-30 29-10 36-10 36 10 34c11 37 44 78 75 90 11 5 37 9 58 9l38 1 30-15zm241 5 37-11 25-30 25-30 6-33 7-33-16-36-15-37-33-20-33-20h-125v260h43c23 0 59-5 79-10zm-582-386c15-9 35-29 44-44l16-28v-40c0-21-5-53-11-70l-10-30 22-44 22-43V875l-16-32c-10-18-28-40-41-48l-24-16-74 37-73 38h-65c-36 1-79-3-97-7l-32-8-11 22-12 22-1 56v56l22 44 23 44-11 24c-6 13-11 44-11 69v46l16 27c9 15 28 35 43 44l26 16 113 1h114l28-16zm-70-528 89-46h62l30 16 31 15 14-5 14-5v-50l-30-16-29-15h-122l-37 19c-20 10-60 30-88 45l-52 26h-31c-37 0-92-21-128-50-14-11-34-20-43-20h-18l-6 17-7 17 34 34 35 34 53 19 54 19 43-4 43-4 89-46zM771 1964l-21-27v-54l21-27 20-26h59l20 20 20 20v79l-22 21-22 20h-55l-20-26zm-251-9v-25h60v50h-60v-25zm1677-26c-10-36-9-39 13-39h20v13c0 7-6 21-13 32l-14 18-6-24zm-308-301-27-9-12-29-12-30 5-22c9-35 29-56 59-63l27-7 25 26 26 25v78l-17 15c-26 22-45 26-74 16zm271-73v-75h41l24 25 25 24v60l-26 20c-15 12-35 21-45 21h-19v-75zm-774-337-16-22v-27c0-36 7-39 45-23l34 14h102l34-14c39-17 45-13 45 29v32l-18 16-19 17h-192l-15-22z"/>
    </g>
  </g>
</svg>